GIL06_free2_RRA_states
nRows=7
nColumns=47

# SIMM Motion File Header:
name GIL06_free2_RRA_states
datacolumns 47
datarows 7
otherdata 1
range 0.62850000000000039000 0.63150000000000039000
endheader
time	pelvis_tx	pelvis_ty	pelvis_tz	pelvis_tilt	pelvis_list	pelvis_rotation	hip_flexion_r	hip_adduction_r	hip_rotation_r	knee_angle_r	ankle_angle_r	subtalar_angle_r	mtp_angle_r	hip_flexion_l	hip_adduction_l	hip_rotation_l	knee_angle_l	ankle_angle_l	subtalar_angle_l	mtp_angle_l	lumbar_extension	lumbar_bending	lumbar_rotation	pelvis_tx_u	pelvis_ty_u	pelvis_tz_u	pelvis_tilt_u	pelvis_list_u	pelvis_rotation_u	hip_flexion_r_u	hip_adduction_r_u	hip_rotation_r_u	knee_angle_r_u	ankle_angle_r_u	subtalar_angle_r_u	mtp_angle_r_u	hip_flexion_l_u	hip_adduction_l_u	hip_rotation_l_u	knee_angle_l_u	ankle_angle_l_u	subtalar_angle_l_u	mtp_angle_l_u	lumbar_extension_u	lumbar_bending_u	lumbar_rotation_u
      0.62850000000000039000	      0.65478735686494027000	      0.81419569404424452000	     -0.26757250764278390000	     -4.77470077087102760000	     -2.29625851557472020000	      1.44552671843552450000	     31.32611576705112100000	      3.02215281346207080000	      6.03710058405648550000	    -18.02873769974795700000	     -7.52442885292896960000	     -0.00000000000000062344	     -0.00000000000004070802	     -8.07930240651052320000	     -1.40703185722260550000	     -4.24563767550082720000	    -25.27549696289720400000	     -3.46114765685138840000	      0.00000000000007800384	     -0.00000000000015126412	     10.17384818413196600000	     -0.90184684431684969000	      5.55047926064537030000	      1.28493068316060330000	      0.13218537788163107000	      0.23819228058970696000	     35.13243927791981500000	    -36.52467855548373900000	    -34.69670115342303500000	    -79.76104822575003100000	     80.76134282584000300000	     50.77415587877141700000	    -75.12585215578771200000	     26.30606499579197400000	      0.00000000000005598795	     -0.00000000000006546551	     50.24419695409005700000	    -88.88108906954805400000	     -6.14397518188004010000	   -261.76504053979551000000	   -318.67179034792275000000	      0.00000000000014616933	     -0.00000000000018042940	    -20.24875338364604400000	     31.19552650831186100000	     47.28417417137635700000
      0.62900000000000045000	      0.65542963349235983000	      0.81426195145861335000	     -0.26745328293366222000	     -4.75707901206984120000	     -2.31456219580681650000	      1.42814922165063000000	     31.28607591330043300000	      3.06261793905379200000	      6.06265781654635830000	    -18.06613375652030100000	     -7.51100054253973770000	     -0.00000000000000059458	     -0.00000000000004074243	     -8.05403492814587270000	     -1.45158156097768850000	     -4.24873853245561420000	    -25.40660739980134200000	     -3.62065215339925840000	      0.00000000000007807554	     -0.00000000000015135738	     10.16364147262770400000	     -0.88622357739710589000	      5.57416982484449350000	      1.28417323127384520000	      0.13284055127830233000	      0.23870444297972207000	     35.35412657683960400000	    -36.68954898129791100000	    -34.81279234966401500000	    -80.39831000500653600000	     81.09797455924038400000	     51.45341405042066200000	    -74.45714328028128600000	     27.40665544184538000000	      0.00000000000006391038	     -0.00000000000008773867	     50.82606308071723300000	    -89.31690152840865000000	     -6.25930119558270360000	   -262.67587651637706000000	   -319.34092780999862000000	      0.00000000000014830572	     -0.00000000000020889684	    -20.57778793187037500000	     31.29702331209910000000	     47.47755092143281500000
      0.62950000000000039000	      0.65607152746432396000	      0.81432853082342838000	     -0.26733380533639811000	     -4.73934714671633110000	     -2.33294756498169330000	      1.41071442946340020000	     31.24571756608839100000	      3.10324958610736260000	      6.08855260867276730000	    -18.10319366673141800000	     -7.49702277436702770000	     -0.00000000000000055971	     -0.00000000000004080077	     -8.02847592461264270000	     -1.49634793682374730000	     -4.25189689875846710000	    -25.53817208853481100000	     -3.78048326812672640000	      0.00000000000007815205	     -0.00000000000015146450	     10.15327073527452100000	     -0.87055034627369243000	      5.59795627037885170000	      1.28339998898484130000	      0.13347309127418905000	      0.23920378532510361000	     35.57279899421158800000	    -36.85142171071258600000	    -34.92586330301766400000	    -81.03491653801152900000	     81.42739454005038600000	     52.12433439869833800000	    -73.78137795748232000000	     28.50378253415170000000	      0.00000000000007424752	     -0.00000000000014443210	     51.41044156095853200000	    -89.74778173555600300000	     -6.37415872704015560000	   -263.58220742552629000000	   -319.97815649896330000000	      0.00000000000015122134	     -0.00000000000020960458	    -20.90478752901112700000	     31.39536838754600000000	     47.66768044303187000000
      0.63000000000000045000	      0.65671303084599297000	      0.81439542075986149000	     -0.26721408131159630000	     -4.72150672515856320000	     -2.35141310994391080000	      1.39322386663746120000	     31.20504111901032100000	      3.14404411770964610000	      6.11478074330909130000	    -18.13991397251973900000	     -7.48249737725626480000	     -0.00000000000000052407	     -0.00000000000004086560	     -8.00262406583272150000	     -1.54132850261375730000	     -4.25511260095270400000	    -25.67018884492542300000	     -3.94062493087717410000	      0.00000000000007822586	     -0.00000000000015156217	     10.14273703494602700000	     -0.85482874055638924000	      5.62183696052682790000	      1.28261093548847940000	      0.13408289050939196000	      0.23969014740371178000	     35.78839857995598800000	    -37.01024866895982500000	    -35.03588445064096400000	    -81.67078862780927300000	     81.74951876847367800000	     52.78680781608248700000	    -73.09864227470583800000	     29.59720431281331400000	      0.00000000000006900486	     -0.00000000000012766113	     51.99734412915085400000	    -90.17362029774024300000	     -6.48847455007349170000	   -264.48396514615342000000	   -320.58310126853064000000	      0.00000000000014672455	     -0.00000000000020280743	    -21.22968756066834200000	     31.49052393613609600000	     47.85454127285916600000
      0.63050000000000039000	      0.65735413576066548000	      0.81446260991067021000	     -0.26709411737908378000	     -4.70355926949880400000	     -2.36995729866914840000	      1.37567905874999410000	     31.16404691169130100000	      3.18499787521818820000	      6.14133799267685280000	    -18.17629115978346700000	     -7.46742622439561820000	     -0.00000000000000048835	     -0.00000000000004092853	     -7.97647815941386900000	     -1.58652070062797850000	     -4.25838527334718630000	    -25.80265527294378800000	     -4.10106097515595010000	      0.00000000000007829701	     -0.00000000000015165631	     10.13204140745850500000	     -0.83906035962240066000	      5.64581026279705430000	      1.28180604808788610000	      0.13466986936846076000	      0.24016336850449760000	     36.00086964847899700000	    -37.16598549046823100000	    -35.14282320091016500000	    -82.30585434317255500000	     82.06426479824483500000	     53.44073716602545000000	    -72.40901260968411200000	     30.68669813032620700000	      0.00000000000007183676	     -0.00000000000011787657	     52.58677258695461600000	    -90.59431923242225100000	     -6.60218977316077900000	   -265.38103868936378000000	   -321.15567171634081000000	      0.00000000000014513593	     -0.00000000000016784223	    -21.55242862337288300000	     31.58245566100961100000	     48.03810887848267400000
      0.63100000000000045000	      0.65799483425105776000	      0.81453008681299277000	     -0.26697392015978616000	     -4.68550638652278460000	     -2.38857857260872160000	      1.35808156199332290000	     31.12273541182563700000	      3.22610713940009800000	      6.16822003878951190000	    -18.21232185119605900000	     -7.45181137303669680000	     -0.00000000000000045313	     -0.00000000000004097806	     -7.95003687070426410000	     -1.63192194741971800000	     -4.26171467853284460000	    -25.93556909201531400000	     -4.26177514912858420000	      0.00000000000007836970	     -0.00000000000015174654	     10.12118497643744100000	     -0.82324682817732220000	      5.66987451707317990000	      1.28098530349277650000	      0.13523395026173338000	      0.24062328875224459000	     36.21015431634089800000	    -37.31858503038730400000	    -35.24665054426385800000	    -82.94003615930178300000	     82.37155174374197500000	     54.08601531608931600000	    -71.71258075395641600000	     31.77202683243586300000	      0.00000000000007200437	     -0.00000000000009597041	     53.17873587685948400000	    -91.00977057022197400000	     -6.71523152946936900000	   -266.27336333033912000000	   -321.69551215719417000000	      0.00000000000015351387	     -0.00000000000020870690	    -21.87294852327272200000	     31.67112744766332400000	     48.21836236480527300000
      0.63150000000000039000	      0.65863511841693734000	      0.81459784003642566000	     -0.26685349633380229000	     -4.66734965546382870000	     -2.40727535364806180000	      1.34043293209500950000	     31.08110703440073400000	      3.26736817062446640000	      6.19542255043481480000	    -18.24800262027919800000	     -7.43565492850453860000	     -0.00000000000000041837	     -0.00000000000004102228	     -7.92329900126421460000	     -1.67752958059444920000	     -4.26510038290887380000	    -26.06892782657525100000	     -4.42275101902080260000	      0.00000000000007844756	     -0.00000000000015186000	     10.11016883853779700000	     -0.80738978087432933000	      5.69402806885809200000	      1.28014867658792310000	      0.13577508340979788000	      0.24106974777415216000	     36.41619695946265300000	    -37.46800401668377800000	    -35.34733458172526400000	    -83.57326377553914700000	     82.67130042802645600000	     54.72254694578240500000	    -71.00942872171575000000	     32.85296813019772300000	      0.00000000000006400869	     -0.00000000000006369544	     53.77323229773511300000	    -91.41987764095976800000	     -6.82754066842080930000	   -267.16083006764342000000	   -322.20253464602246000000	      0.00000000000015608442	     -0.00000000000023936912	    -22.19119031038340900000	     31.75650692223496200000	     48.39527793676877800000
